<?xml version="1.0" standalone="no"?>
<!DOCTYPE svg PUBLIC "-//W3C//DTD SVG 20010904//EN"
 "http://www.w3.org/TR/2001/REC-SVG-20010904/DTD/svg10.dtd">
<svg version="1.0" xmlns="http://www.w3.org/2000/svg"
 width="500.000000pt" height="154.000000pt" viewBox="0 0 500.000000 154.000000"
 preserveAspectRatio="xMidYMid meet">

<g transform="translate(0.000000,154.000000) scale(0.100000,-0.100000)"
fill="#000000" stroke="none">
<path d="M2935 1270 c3 -5 8 -10 11 -10 2 0 4 5 4 10 0 6 -5 10 -11 10 -5 0
-7 -4 -4 -10z"/>
<path d="M2864 1219 c-20 -23 -17 -29 14 -29 29 0 52 16 52 35 0 16 -50 12
-66 -6z"/>
<path d="M2956 1215 l-16 -25 40 0 c43 0 49 9 24 34 -21 22 -29 20 -48 -9z"/>
<path d="M3040 1225 c0 -20 27 -37 55 -33 23 3 25 5 13 21 -16 21 -68 30 -68
12z"/>
<path d="M2881 1123 c20 -21 46 -51 59 -68 14 -18 20 -22 15 -10 -4 11 -15 41
-24 67 -15 45 -18 48 -51 48 l-34 0 35 -37z"/>
<path d="M2949 1138 c17 -42 40 -93 41 -88 0 3 9 29 20 58 l20 52 -45 0 c-42
0 -44 -1 -36 -22z"/>
<path d="M3053 1143 c-3 -10 -14 -38 -25 -63 -10 -25 -15 -40 -10 -35 5 6 30
34 57 63 l48 52 -32 0 c-21 0 -34 -6 -38 -17z"/>
<path d="M439 1093 c-23 -32 -55 -76 -71 -98 -16 -22 -51 -71 -79 -108 -28
-37 -49 -72 -47 -77 3 -8 87 -99 364 -388 77 -80 103 -102 117 -96 10 3 17 12
15 19 -2 7 -101 115 -220 240 -246 257 -231 222 -149 332 25 33 66 89 91 122
l45 61 215 -2 215 -3 73 -95 c40 -52 86 -114 103 -138 l31 -43 -147 -154 c-81
-85 -151 -155 -155 -155 -5 0 -37 30 -72 67 -35 38 -102 109 -150 159 -49 49
-88 94 -88 99 0 4 16 28 36 51 l35 44 124 0 123 0 31 -39 c17 -21 31 -45 31
-53 0 -19 -86 -102 -98 -94 -5 3 -15 -1 -22 -9 -10 -12 -9 -20 4 -40 9 -14 20
-25 25 -25 7 0 112 108 152 156 9 11 -1 29 -46 84 l-57 70 -148 0 -148 0 -51
-70 c-28 -39 -51 -75 -51 -81 0 -10 64 -79 283 -304 l87 -90 92 95 c231 237
268 278 268 287 0 6 -39 62 -87 124 -49 63 -104 135 -123 161 l-35 47 -237 1
-237 0 -42 -57z"/>
<path d="M4473 1128 c-6 -13 -27 -66 -48 -118 -134 -340 -142 -355 -180 -370
-14 -5 -22 -15 -20 -22 7 -19 185 -12 185 7 0 8 -12 15 -26 17 -43 5 -51 28
-30 95 26 83 110 293 117 293 11 0 151 -360 146 -375 -3 -7 -20 -15 -38 -17
-18 -2 -34 -9 -37 -15 -3 -10 24 -13 112 -13 112 0 161 13 97 26 -39 8 -45 16
-75 95 -14 35 -55 136 -91 224 -37 88 -69 168 -72 178 -7 24 -28 21 -40 -5z"/>
<path d="M1415 1131 c-7 -13 6 -19 50 -23 l30 -3 0 -230 0 -230 -38 -5 c-21
-3 -39 -9 -40 -15 -1 -6 45 -11 121 -13 104 -2 122 0 122 13 0 11 -11 15 -40
15 l-40 0 0 105 0 105 85 0 c129 0 193 39 202 123 8 65 -11 111 -55 139 -34
21 -50 23 -213 26 -120 2 -179 0 -184 -7z m341 -44 c20 -18 28 -35 31 -73 6
-66 -9 -102 -50 -119 -38 -16 -130 -26 -146 -16 -7 5 -16 168 -12 224 1 4 34
7 75 7 64 0 79 -3 102 -23z"/>
<path d="M2162 1128 c3 -8 33 -15 84 -18 43 -3 85 -9 91 -13 21 -13 33 -78 23
-121 -13 -60 -30 -70 -121 -75 -89 -4 -105 -22 -27 -31 85 -10 109 -42 123
-162 9 -79 34 -110 88 -106 45 3 71 31 81 86 4 24 2 32 -9 32 -9 0 -15 -9 -15
-24 0 -13 -7 -29 -15 -36 -23 -19 -51 11 -59 63 -10 60 -42 122 -71 135 -36
16 -31 29 14 36 56 9 101 62 101 119 0 87 -63 126 -203 127 -67 0 -88 -3 -85
-12z"/>
<path d="M3452 1128 c3 -7 15 -15 29 -18 24 -6 55 -48 163 -219 44 -72 46 -77
46 -151 0 -86 -8 -100 -57 -100 -23 0 -33 -5 -33 -15 0 -13 21 -15 126 -15 96
0 125 3 122 13 -3 6 -22 14 -44 17 l-39 5 -3 91 -3 90 47 85 c83 150 111 188
144 196 61 16 35 28 -67 31 -87 2 -103 0 -103 -13 0 -8 9 -15 19 -15 62 0 64
-24 12 -128 -54 -105 -64 -118 -79 -99 -27 32 -122 197 -122 212 0 11 10 15
35 15 24 0 35 5 35 15 0 12 -20 15 -116 15 -87 0 -115 -3 -112 -12z"/>
<path d="M2950 826 c0 -176 -1 -182 -54 -188 -16 -1 -31 -9 -34 -16 -3 -10 22
-12 117 -10 70 2 122 7 124 13 1 6 -14 11 -33 13 -19 2 -38 9 -42 15 -4 7 -8
85 -8 175 l0 162 -35 0 -35 0 0 -164z"/>
<path d="M676 846 c6 -16 32 -25 52 -18 20 7 -6 32 -34 32 -16 0 -22 -4 -18
-14z"/>
<path d="M787 846 c-21 -21 -22 -43 -2 -62 28 -29 46 11 26 60 -7 17 -8 17
-24 2z"/>
<path d="M637 797 c-16 -11 -15 -15 17 -46 30 -29 39 -33 70 -27 40 8 47 21
16 31 -27 8 -26 29 1 22 20 -5 20 -5 3 14 -20 22 -81 26 -107 6z"/>
<path d="M1463 420 c-26 -11 -43 -40 -43 -74 0 -30 40 -76 67 -76 28 0 63 37
63 65 0 21 -5 25 -30 25 -34 0 -40 -15 -10 -23 26 -7 16 -37 -12 -37 -35 0
-58 19 -58 49 0 37 22 54 60 49 39 -6 49 9 15 22 -14 6 -27 10 -28 9 -1 0 -12
-4 -24 -9z"/>
<path d="M4036 417 c-10 -7 -17 -22 -15 -32 4 -18 13 -25 61 -44 19 -7 26 -15
22 -26 -7 -17 -59 -21 -69 -5 -4 6 -11 8 -16 4 -15 -9 26 -44 52 -44 23 0 59
34 59 55 0 18 -23 34 -58 41 -34 7 -43 28 -16 38 8 3 24 1 34 -4 12 -6 21 -7
25 -1 6 11 -25 31 -47 31 -8 0 -22 -6 -32 -13z"/>
<path d="M1630 344 c0 -47 4 -73 10 -69 6 3 10 17 10 31 0 33 18 30 57 -8 34
-33 47 -20 16 15 -17 18 -17 19 0 28 20 11 23 49 5 67 -7 7 -31 12 -55 12
l-43 0 0 -76z m83 42 c7 -19 -17 -39 -40 -34 -10 2 -19 13 -21 26 -3 18 1 22
26 22 17 0 32 -6 35 -14z"/>
<path d="M1837 403 c-28 -32 -26 -73 7 -107 31 -34 59 -33 90 5 31 37 33 72 6
99 -25 25 -81 26 -103 3z m93 -24 c26 -47 -25 -100 -69 -72 -20 13 -26 60 -10
79 18 22 66 18 79 -7z"/>
<path d="M2030 416 c0 -2 12 -38 27 -78 l27 -72 24 54 24 55 18 -49 c11 -26
21 -50 23 -53 3 -2 14 20 25 49 33 90 36 101 21 96 -8 -3 -19 -22 -25 -43 -15
-53 -28 -53 -42 0 -6 25 -16 45 -21 45 -5 0 -16 -19 -23 -42 -18 -52 -29 -52
-44 -2 -6 21 -16 40 -22 42 -7 2 -12 1 -12 -2z"/>
<path d="M2320 344 c0 -47 4 -73 10 -69 6 3 10 27 10 53 l0 47 45 -50 44 -50
1 73 c0 41 -4 72 -10 72 -5 0 -10 -18 -10 -40 0 -22 -3 -40 -7 -40 -5 0 -21
18 -37 40 -17 22 -33 40 -38 40 -4 0 -8 -34 -8 -76z"/>
<path d="M2640 350 c0 -62 2 -70 19 -70 11 0 26 -2 33 -5 8 -3 27 6 41 21 54
53 23 124 -53 124 l-40 0 0 -70z m88 38 c30 -30 2 -88 -44 -88 -22 0 -24 4
-24 50 0 48 1 50 28 50 15 0 33 -5 40 -12z"/>
<path d="M2840 351 c0 -39 5 -73 10 -76 6 -4 10 22 10 69 0 44 -4 76 -10 76
-6 0 -10 -30 -10 -69z"/>
<path d="M2971 354 c-17 -36 -31 -70 -31 -75 0 -17 19 -9 25 11 9 30 78 28 99
-2 13 -18 16 -19 16 -6 0 28 -52 138 -65 138 -7 0 -27 -30 -44 -66z m69 -11
c0 -7 -11 -13 -25 -13 -27 0 -31 10 -14 42 11 21 12 21 25 3 8 -10 14 -25 14
-32z"/>
<path d="M3160 358 c0 -73 14 -109 25 -65 4 15 5 39 2 52 -6 36 9 40 30 9 l17
-26 22 26 c13 14 26 26 29 26 3 0 5 -25 5 -55 0 -30 5 -55 10 -55 6 0 10 32
10 75 0 85 -11 95 -49 44 l-23 -32 -25 32 c-39 50 -53 41 -53 -31z"/>
<path d="M3424 412 c-15 -9 -34 -47 -34 -66 0 -23 50 -76 72 -76 11 0 31 11
44 26 45 48 21 124 -39 124 -18 0 -37 -4 -43 -8z m74 -24 c7 -7 12 -24 12 -38
0 -34 -17 -50 -52 -50 -37 0 -57 38 -40 75 13 27 58 35 80 13z"/>
<path d="M3610 358 c0 -67 12 -103 24 -73 3 9 6 32 6 51 0 19 5 34 10 34 6 0
10 -3 10 -7 0 -5 16 -26 35 -48 l34 -40 1 73 c0 41 -4 72 -10 72 -5 0 -10 -19
-10 -42 l-1 -43 -37 43 c-52 58 -62 55 -62 -20z"/>
<path d="M3810 358 c0 -35 4 -67 8 -73 14 -20 64 -11 93 16 56 52 24 119 -56
119 l-45 0 0 -62z m94 26 c9 -8 16 -21 16 -27 0 -25 -32 -57 -56 -57 -22 0
-24 4 -24 50 0 46 2 50 24 50 14 0 32 -7 40 -16z"/>
<path d="M4340 343 c0 -54 3 -73 10 -63 13 20 13 140 0 140 -6 0 -10 -32 -10
-77z"/>
<path d="M4450 343 c0 -54 3 -73 10 -63 5 8 10 32 10 53 0 44 10 47 32 9 9
-15 26 -36 37 -46 l21 -19 0 71 c0 41 -4 72 -10 72 -5 0 -10 -18 -10 -40 0
-22 -3 -40 -7 -40 -5 0 -21 18 -37 40 -17 22 -33 40 -38 40 -4 0 -8 -35 -8
-77z"/>
<path d="M4661 393 c-16 -19 -20 -35 -16 -53 14 -55 73 -88 103 -58 20 20 13
27 -22 21 -28 -4 -37 -1 -50 19 -30 46 4 88 61 73 18 -4 24 -2 21 7 -3 7 -21
14 -40 16 -29 3 -40 -2 -57 -25z"/>
</g>
</svg>
